<?xml version="1.0" standalone="no"?><!DOCTYPE svg PUBLIC "-//W3C//DTD SVG 1.1//EN" "http://www.w3.org/Graphics/SVG/1.1/DTD/svg11.dtd"><svg t="1663469616565" class="icon" viewBox="0 0 1024 1024" version="1.1" xmlns="http://www.w3.org/2000/svg" p-id="2171" xmlns:xlink="http://www.w3.org/1999/xlink" width="200" height="200"><path d="M3.490809 516.064895a508.465309 507.935105 0 1 0 1016.930618 0 508.465309 507.935105 0 1 0-1016.930618 0Z" opacity=".2" p-id="2172"></path><path d="M3.490809 507.846738a508.465309 507.846738 0 1 0 1016.930618 0 508.465309 507.846738 0 1 0-1016.930618 0Z" fill="#FFC802" p-id="2173"></path><path d="M1016.09143 574.387297l-406.489472-405.782533L281.84773 704.375561l306.192613 305.750777A508.465309 508.465309 0 0 0 1016.09143 574.387297z" fill="#FFC802" p-id="2174"></path><path d="M1016.09143 574.387297l-406.489472-405.782533L281.84773 704.375561l306.192613 305.750777A508.376942 508.376942 0 0 0 1016.09143 574.387297z" fill="#CC9805" p-id="2175"></path><path d="M703.182904 365.045219h-19.79427A158.00069 158.00069 0 0 0 601.472169 238.591647l-10.338972-4.771833a167.897825 167.897825 0 0 0-137.411115 0c-3.446324 1.502244-6.892648 3.004487-10.427338 4.329996l0.530203 0.795306a159.061098 159.061098 0 0 0-32.607525 23.594062H318.696884a51.518122 51.518122 0 0 0-51.341388 51.341388V313.703832v354.882982a51.518122 51.518122 0 0 0 51.429755 51.341388h89.86952l-22.091819 47.099758a25.184674 25.184674 0 1 0 45.509148 21.208146l31.900586-68.307904h116.026235l32.43079 67.424232a25.11398 25.11398 0 0 0 45.244046-21.826718l-21.915085-45.597514h72.107698v79.530548a2.562651 2.562651 0 0 0 2.562651 2.562651h21.73835a46.39282 46.39282 0 0 0 46.216085-46.216085V414.619261c0-56.024853-75.023818-49.574042-75.023818-49.574042z" fill="#CC9805" p-id="2176"></path><path d="M442.587806 245.92613H302.348938a51.518122 51.518122 0 0 0-51.341388 51.429755 50.104246 50.104246 0 0 0 49.66241 51.341388h143.154987l-1.237141-102.771143z" fill="#073042" p-id="2177"></path><path d="M761.947143 703.580255h-459.509838A51.606489 51.606489 0 0 1 250.919183 652.150501V297.179151a51.429755 51.429755 0 0 0 54.787711 51.518122h381.128064s75.112185-6.450811 75.112185 49.485675z" fill="#4285F4" p-id="2178"></path><path d="M486.948178 522.338971l-85.097687 181.418019h55.406282l39.500173-84.302382a20.147739 20.147739 0 0 1 36.407318 0l40.295478 84.302382h55.848119L542.000992 521.366931a46.304453 46.304453 0 0 0-16.87815-81.562996v-30.044874a8.836728 8.836728 0 0 0-17.673455 0v29.072834a46.304453 46.304453 0 0 0-20.412841 83.595444z m26.510183-66.275457a28.54263 28.54263 0 1 1 0.97204 57.085261h-0.97204a28.54263 28.54263 0 0 1 0-57.085261z" fill="#3870B2" p-id="2179"></path><path d="M412.189462 271.199172H608.806653v35.965481H412.189462z" fill="#FFFFFF" p-id="2180"></path><path d="M580.35239 302.923024a13.343459 13.343459 0 1 1 13.343458-13.343459 13.431826 13.431826 0 0 1-13.343458 13.343459m-147.838454 0a13.343459 13.343459 0 1 1 13.343459-13.343459 13.431826 13.431826 0 0 1-13.343459 13.343459m152.610287-80.502589l26.510182-46.304453a5.567138 5.567138 0 0 0-2.385916-7.511218 5.390404 5.390404 0 0 0-7.246117 1.94408l-27.128754 46.834656a168.428029 168.428029 0 0 0-137.499482 0l-27.040386-46.834656a5.567138 5.567138 0 0 0-9.632033 5.567138l26.510182 46.304453a157.647221 157.647221 0 0 0-81.916465 126.276838h321.745254a157.647221 157.647221 0 0 0-81.916465-126.276838" fill="#3DDC84" p-id="2181"></path><path d="M715.731057 447.315154h-21.296513a2.562651 2.562651 0 0 0-2.562651 2.562651l-0.441837 333.144632a2.474284 2.474284 0 0 0 2.474284 2.562651h21.73835a46.39282 46.39282 0 0 0 46.304453-46.216086V401.010701a46.481187 46.481187 0 0 1-46.216086 46.304453z m-212.081463 8.836727a28.54263 28.54263 0 1 1 0.97204 57.085261h-0.97204a28.54263 28.54263 0 0 1 0-57.085261z m11.399378-17.054884V410.024163a8.836728 8.836728 0 0 0-9.278564-8.836728 8.836728 8.836728 0 0 0-8.836727 8.836728v29.161201a46.304453 46.304453 0 0 0-20.412841 83.595444L370.215006 751.12185a25.096307 25.096307 0 0 0 45.509148 21.208147l71.135657-152.52192a20.236106 20.236106 0 0 1 36.495685 0l72.726269 151.19641a25.11398 25.11398 0 1 0 45.244045-21.826717L532.103857 521.366931a46.216086 46.216086 0 0 0-16.789783-81.474629" fill="#073042" p-id="2182"></path></svg>